<svg width="547" height="497" viewBox="0 0 547 497" fill="none" xmlns="http://www.w3.org/2000/svg">
<path d="M421.195 436.838L420.785 436.838L56.5509 434.437C41.5269 434.329 27.1541 428.263 16.5623 417.56C5.9705 406.857 0.0176261 392.385 7.51385e-08 377.294L2.11724 56.7999C2.22532 41.7098 8.26483 27.2737 18.9206 16.6352C29.5763 5.99679 43.9853 0.0177037 59.0096 1.1725e-08L59.4194 1.18064e-08L423.448 2.40096C438.538 2.52785 452.962 8.65635 463.562 19.4441C474.161 30.2318 480.072 44.7992 479.999 59.9555L478.087 380.038C477.979 395.128 471.939 409.564 461.284 420.203C450.628 430.841 436.219 436.82 421.195 436.838V436.838ZM68.2981 365.907L409.789 368.171L411.769 70.9313L70.3471 68.599L68.2981 365.907Z" fill="white"/>
<path d="M35.9268 102.898L34.151 377.294C34.1331 380.294 34.7035 383.268 35.8299 386.046C36.9563 388.825 38.6165 391.353 40.7157 393.487C42.8149 395.621 45.3121 397.319 48.0646 398.483C50.8171 399.648 53.771 400.257 56.7577 400.275L420.992 402.676C423.993 402.694 426.969 402.117 429.748 400.978C432.526 399.838 435.054 398.16 437.186 396.038C439.318 393.916 441.012 391.392 442.171 388.611C443.33 385.83 443.931 382.847 443.94 379.832L445.716 105.436L35.9268 102.898Z" fill="#7B93FF"/>
<path d="M421.193 404.254L56.7543 401.853C50.2933 401.817 44.1092 399.213 39.5533 394.611C34.9974 390.01 32.4401 383.784 32.4402 377.294L34.1476 102.899C34.1476 102.444 34.3275 102.008 34.6477 101.686C34.9679 101.364 35.4022 101.184 35.8551 101.184L445.644 103.859C446.097 103.859 446.531 104.04 446.851 104.361C447.171 104.683 447.351 105.119 447.351 105.574L445.576 379.97C445.555 383.203 444.899 386.401 443.645 389.38C442.391 392.358 440.563 395.058 438.268 397.325C433.713 401.813 427.573 404.304 421.193 404.254V404.254ZM37.6308 104.476L35.8551 377.294C35.8371 380.069 36.3634 382.82 37.404 385.39C38.4445 387.961 39.9789 390.3 41.9196 392.275C43.8603 394.249 46.1692 395.821 48.7146 396.899C51.2599 397.978 53.9918 398.542 56.7543 398.56L421.057 400.961C426.612 400.961 431.942 398.754 435.883 394.821C439.824 390.888 442.056 385.55 442.092 379.97L443.936 107.152L37.6308 104.476Z" fill="#3D3DFF"/>
<path d="M446.054 59.7497C446.081 56.7441 445.517 53.7627 444.395 50.9763C443.273 48.19 441.614 45.6535 439.514 43.5123C437.414 41.371 434.913 39.6671 432.157 38.4982C429.4 37.3293 426.44 36.7184 423.447 36.7005L59.1453 34.2995C56.1585 34.2814 53.1975 34.8544 50.4313 35.9857C47.6651 37.1171 45.1478 38.7846 43.0232 40.893C40.8986 43.0015 39.2083 45.5097 38.0488 48.2743C36.8893 51.0389 36.2833 54.0059 36.2654 57.0057L36.2654 102.761L446.054 105.437L446.054 59.7497Z" fill="#F2F2F2"/>
<path d="M445.715 107.152L35.9264 104.476C35.4846 104.495 35.0526 104.342 34.7214 104.047C34.3902 103.753 34.1856 103.341 34.1506 102.898L34.1506 57.1429C34.1502 53.8829 34.7959 50.6555 36.0502 47.6488C37.3046 44.6421 39.1423 41.9163 41.4564 39.6303C43.7704 37.3444 46.5144 35.5441 49.5284 34.3344C52.5423 33.1247 55.7659 32.5299 59.0112 32.5845V32.5845L423.45 34.9855C429.935 35.0578 436.129 37.701 440.684 42.3393C445.238 46.9776 447.782 53.2354 447.764 59.7497L447.764 105.437C447.769 105.694 447.717 105.949 447.611 106.183C447.504 106.417 447.347 106.624 447.15 106.789C446.953 106.953 446.722 107.072 446.474 107.134C446.225 107.197 445.966 107.203 445.715 107.152V107.152ZM37.6338 101.046L444.008 103.722L444.008 59.6811C444.027 54.1412 441.887 48.8137 438.045 44.8392C434.202 40.8646 428.964 38.5588 423.45 38.4154L59.1477 36.0145C56.3853 35.9964 53.6463 36.525 51.0872 37.5701C48.5281 38.6153 46.1991 40.1565 44.233 42.1057C42.267 44.0549 40.7024 46.374 39.6287 48.9306C38.555 51.4871 37.9932 54.2311 37.9753 57.0057L37.6338 101.046Z" fill="#3D3DFF"/>
<path d="M70.3462 80.1237C76.6454 80.1237 81.752 74.9947 81.752 68.6677C81.752 62.3407 76.6454 57.2117 70.3462 57.2117C64.047 57.2117 58.9404 62.3407 58.9404 68.6677C58.9404 74.9947 64.047 80.1237 70.3462 80.1237Z" fill="#FF6777"/>
<path d="M70.3481 81.8386C67.7848 81.7655 65.299 80.939 63.1984 79.4615C61.0978 77.984 59.4746 75.9204 58.5298 73.5258C57.5849 71.1313 57.3598 68.5111 57.8822 65.9894C58.4047 63.4677 59.6519 61.1552 61.4694 59.3381C62.6777 58.1182 64.1145 57.1506 65.697 56.4913C67.2795 55.8319 68.9764 55.4939 70.6896 55.4966V55.4966C74.0842 55.6032 77.3052 57.0284 79.6746 59.4722C82.044 61.916 83.3771 65.1879 83.3931 68.599V68.599C83.4077 70.3379 83.0701 72.0616 82.4008 73.6654C81.7316 75.2692 80.7447 76.7196 79.5001 77.9284C77.0748 80.3821 73.7901 81.7855 70.3481 81.8386ZM70.3481 58.9265C67.7929 58.9306 65.341 59.9403 63.5183 61.7391C61.7166 63.5636 60.7056 66.0292 60.7056 68.599C60.7056 71.1688 61.7166 73.6344 63.5183 75.4589C64.4133 76.3632 65.4775 77.0808 66.6496 77.5706C67.8217 78.0603 69.0787 78.3124 70.3481 78.3124C71.6176 78.3124 72.8746 78.0603 74.0467 77.5706C75.2188 77.0808 76.283 76.3632 77.178 75.4589C78.0863 74.5646 78.8079 73.4972 79.3005 72.3193C79.7931 71.1414 80.0467 69.8766 80.0465 68.599C80.0795 67.3229 79.8476 66.054 79.3655 64.8729C78.8834 63.6918 78.1616 62.6246 77.2463 61.7391C75.4458 59.89 72.9912 58.8298 70.4164 58.7893L70.3481 58.9265Z" fill="#3D3DFF"/>
<path d="M115.834 80.3982C122.134 80.3982 127.24 75.2691 127.24 68.9421C127.24 62.6151 122.134 57.4861 115.834 57.4861C109.535 57.4861 104.428 62.6151 104.428 68.9421C104.428 75.2691 109.535 80.3982 115.834 80.3982Z" fill="#00FFAC"/>
<path d="M116.106 82.3188C114.317 82.3585 112.539 82.0281 110.883 81.3481C109.227 80.6682 107.727 79.6532 106.478 78.3664C105.229 77.0796 104.257 75.5484 103.622 73.8681C102.987 72.1878 102.703 70.3943 102.788 68.599C102.878 65.1358 104.329 61.8492 106.825 59.4581C109.321 57.0669 112.658 55.7659 116.106 55.8396V55.8396C119.602 55.8396 122.955 57.2345 125.427 59.7174C127.899 62.2003 129.288 65.5679 129.288 69.0792C129.288 72.5906 127.899 75.9581 125.427 78.441C122.955 80.9239 119.602 82.3188 116.106 82.3188ZM116.106 59.4754C113.602 59.4172 111.172 60.3345 109.326 62.0352C107.48 63.7359 106.361 66.0881 106.203 68.599C106.136 69.9294 106.345 71.2593 106.817 72.5042C107.289 73.7491 108.014 74.8817 108.945 75.8301C109.876 76.7785 110.994 77.5219 112.227 78.013C113.46 78.5042 114.781 78.7324 116.106 78.6831V78.6831C117.444 78.7961 118.79 78.6291 120.06 78.1926C121.33 77.7561 122.495 77.0596 123.483 76.1472C124.471 75.2349 125.26 74.1264 125.8 72.8921C126.339 71.6578 126.618 70.3244 126.618 68.9763C126.618 67.6283 126.339 66.2949 125.8 65.0606C125.26 63.8262 124.471 62.7178 123.483 61.8054C122.495 60.893 121.33 60.1966 120.06 59.7601C118.79 59.3236 117.444 59.1566 116.106 59.2696L116.106 59.4754Z" fill="#3D3DFF"/>
<path d="M161.387 80.7409C167.686 80.7409 172.793 75.6119 172.793 69.2849C172.793 62.9579 167.686 57.8289 161.387 57.8289C155.088 57.8289 149.981 62.9579 149.981 69.2849C149.981 75.6119 155.088 80.7409 161.387 80.7409Z" fill="#00CDFF"/>
<path d="M161.385 82.3186C159.652 82.3049 157.939 81.9462 156.344 81.2632C154.75 80.5803 153.306 79.5867 152.097 78.3398C150.891 77.1228 149.938 75.6775 149.294 74.0878C148.649 72.498 148.325 70.7955 148.34 69.079C148.358 65.5977 149.748 62.2652 152.205 59.81C154.662 57.3548 157.987 55.9765 161.453 55.9766V55.9766C164.931 55.9766 168.267 57.3642 170.726 59.8343C173.185 62.3043 174.567 65.6544 174.567 69.1476C174.567 72.6407 173.185 75.9908 170.726 78.4609C168.267 80.9309 164.931 82.3186 161.453 82.3186L161.385 82.3186ZM161.385 59.4065C158.825 59.4064 156.368 60.4233 154.551 62.2353C152.735 64.0473 151.705 66.5074 151.687 69.079C151.674 70.3523 151.915 71.6153 152.396 72.7935C152.877 73.9717 153.588 75.0412 154.487 75.9389C156.296 77.7757 158.745 78.8336 161.317 78.8886V78.8886C162.583 78.894 163.839 78.6483 165.011 78.1657C166.183 77.6831 167.248 76.973 168.147 76.0761C169.975 74.2593 171.029 71.7991 171.083 69.2162C171.084 66.6381 170.073 64.1635 168.271 62.3278C166.469 60.492 164.02 59.4426 161.453 59.4065L161.385 59.4065Z" fill="#3D3DFF"/>
<path d="M423.449 84.1708C422.985 84.1499 422.546 83.9539 422.22 83.622L399.272 60.6414C398.955 60.3139 398.78 59.8734 398.787 59.4167C398.793 58.96 398.98 58.5245 399.306 58.2061C399.632 57.8877 400.07 57.7125 400.525 57.7189C400.98 57.7254 401.413 57.9129 401.73 58.2404L424.337 81.2211C424.65 81.5416 424.825 81.9726 424.825 82.4215C424.825 82.8704 424.65 83.3014 424.337 83.622C424.1 83.8869 423.792 84.0775 423.449 84.1708V84.1708Z" fill="#3D3DFF"/>
<path d="M400.363 84.0337C400.132 84.0306 399.904 83.9803 399.692 83.886C399.481 83.7917 399.291 83.6552 399.134 83.4849C398.97 83.3309 398.84 83.1449 398.751 82.9385C398.662 82.732 398.616 82.5094 398.616 82.2844C398.616 82.0594 398.662 81.8368 398.751 81.6303C398.84 81.4238 398.97 81.2379 399.134 81.0839L422.082 58.3777C422.411 58.13 422.817 58.0097 423.227 58.039C423.637 58.0682 424.023 58.2451 424.314 58.537C424.604 58.8289 424.78 59.2163 424.809 59.6281C424.839 60.0399 424.719 60.4484 424.472 60.7786L401.524 83.4849C401.223 83.8125 400.806 84.0093 400.363 84.0337V84.0337Z" fill="#3D3DFF"/>
<path d="M377.76 60.9848L195.609 59.75C195.156 59.75 194.722 59.5693 194.401 59.2477C194.081 58.9261 193.901 58.4899 193.901 58.035C193.901 57.5802 194.081 57.144 194.401 56.8224C194.722 56.5008 195.156 56.3201 195.609 56.3201L377.76 57.5548C378.213 57.5548 378.647 57.7355 378.967 58.0571C379.288 58.3788 379.467 58.815 379.467 59.2698C379.451 59.7192 379.265 60.1456 378.949 60.4637C378.632 60.7817 378.207 60.9678 377.76 60.9848V60.9848Z" fill="#3D3DFF"/>
<path d="M377.554 83.8278L195.471 82.6616C195.018 82.6616 194.584 82.481 194.264 82.1593C193.943 81.8377 193.763 81.4015 193.763 80.9467C193.763 80.4918 193.943 80.0556 194.264 79.734C194.584 79.4124 195.018 79.2317 195.471 79.2317L377.622 80.3979C378.063 80.4156 378.48 80.6041 378.785 80.9238C379.091 81.2435 379.261 81.6697 379.261 82.1129C379.261 82.5677 379.081 83.0039 378.761 83.3255C378.441 83.6472 378.007 83.8278 377.554 83.8278Z" fill="#3D3DFF"/>
<path d="M299.259 265.673C299.711 263.2 300.135 260.869 300.56 258.54C301.941 250.961 303.322 243.382 304.702 235.804C305.404 231.952 306.081 228.095 306.806 224.248C307.086 222.762 307.526 221.334 308.691 220.241C309.314 219.623 310.148 219.263 311.025 219.235C312.719 219.189 314.415 219.196 316.112 219.196C318.472 219.196 319.63 220.241 320.033 222.567C320.379 224.564 319.979 226.487 319.606 228.416C317.628 238.637 315.648 248.858 313.665 259.079C311.735 269.029 309.801 278.98 307.864 288.929C306.993 293.372 306.13 297.818 305.138 302.235C304.4 305.522 303.344 308.72 301.611 311.645C298.954 316.13 295.058 318.483 289.785 318.439C287.331 318.42 284.908 318.224 282.696 317.04C280.442 315.83 279.101 314.015 279.067 311.362C279.044 309.622 279.05 307.889 279.584 306.205C280.3 303.944 281.893 303.034 284.182 303.587C284.691 303.714 285.199 303.859 285.708 303.996C286.484 304.207 287.261 304.415 288.035 304.632C288.74 304.828 289.225 304.608 289.64 303.985C291.196 301.649 291.786 299.042 291.905 296.289C292.009 293.818 291.396 291.448 290.805 289.093C288.045 278.117 285.255 267.149 282.435 256.189C279.939 246.39 277.439 236.595 274.933 226.803C274.491 225.09 274.519 223.289 275.013 221.59C275.446 220.087 276.45 219.259 278.018 219.229C280.453 219.182 282.892 219.199 285.328 219.216C287.579 219.23 288.972 220.545 289.612 222.712C290.293 225.021 290.756 227.395 291.279 229.748C293.883 241.523 296.481 253.3 299.072 265.078C299.112 265.227 299.167 265.378 299.259 265.673Z" fill="white"/>
<path d="M242.656 233.376C241.586 233.376 240.621 233.391 239.645 233.376C237.229 233.331 235.83 232.104 235.462 229.717C235.359 229.113 235.306 228.501 235.302 227.888C235.328 226.195 235.335 224.499 235.489 222.817C235.554 222.111 235.89 221.389 236.252 220.759C236.831 219.75 237.812 219.28 238.956 219.233C240.16 219.19 241.372 219.223 242.643 219.223C242.7 218.255 242.761 217.356 242.805 216.456C243.171 208.753 243.515 201.05 243.913 193.348C243.962 192.125 244.154 190.911 244.484 189.733C245.029 187.889 246.265 187.062 248.172 187.028C249.718 187.001 251.268 187.079 252.812 187.008C255.955 186.863 257.168 188.827 257.446 191.204C257.536 192.046 257.579 192.893 257.573 193.741C257.582 201.941 257.582 210.142 257.573 218.342V219.185H258.298C260.544 219.185 262.793 219.26 265.037 219.168C268.385 219.031 269.615 221.054 269.752 223.46C269.866 225.552 269.831 227.649 269.645 229.735C269.443 232.033 267.836 233.35 265.521 233.366C263.085 233.382 260.647 233.366 258.211 233.366C258.024 233.366 257.839 233.382 257.608 233.394C257.596 233.631 257.575 233.836 257.575 234.041C257.575 247.435 257.58 260.829 257.589 274.223C257.589 277.215 257.814 280.189 258.852 283.043C259.64 285.204 260.124 285.559 262.438 285.563C264.238 285.563 266.04 285.549 267.841 285.591C270.002 285.643 271.401 286.77 271.656 288.913C271.94 291.246 271.986 293.609 271.565 295.94C271.26 297.635 270.039 298.767 268.332 298.964C267.426 299.058 266.516 299.096 265.605 299.078C262.98 299.061 260.344 299.14 257.729 298.951C251.498 298.501 247.23 295.287 244.992 289.453C243.654 285.963 243.049 282.305 242.839 278.595C242.683 275.805 242.653 273 242.648 270.202C242.64 258.239 242.642 246.273 242.656 234.305V233.376Z" fill="white"/>
<path d="M169.158 206.668C167.697 207.033 166.332 207.315 165.003 207.72C162.503 208.483 160.611 207.01 160.184 204.692C160.068 204.068 160.007 203.434 160.003 202.799C160.003 200.531 159.98 198.264 160.059 196C160.132 193.904 161.253 192.461 163.269 191.922C169.156 190.341 175.051 188.8 180.952 187.297C183.461 186.661 185.383 188.022 185.741 190.579C185.871 191.479 185.939 192.388 185.943 193.297C185.954 225.887 185.954 258.477 185.943 291.066C185.943 292.697 185.898 294.327 185.394 295.905C184.695 298.099 183.535 298.957 181.23 298.957C178.686 298.957 176.143 298.957 173.6 298.957C171.693 298.957 170.538 298.25 169.913 296.451C169.54 295.387 169.385 294.236 169.228 293.11C169.12 292.34 169.166 291.545 169.166 290.762C169.166 263.067 169.166 235.372 169.166 207.678L169.158 206.668Z" fill="white"/>
<path d="M206.335 206.665C204.901 207.022 203.531 207.301 202.2 207.712C199.603 208.506 197.649 206.909 197.327 204.454C197.207 203.381 197.159 202.302 197.183 201.223C197.192 199.315 197.162 197.408 197.327 195.512C197.492 193.616 198.643 192.388 200.495 191.897C205.835 190.481 211.176 189.08 216.516 187.693C217.471 187.445 218.462 187.207 219.441 187.197C221.268 187.178 222.516 188.353 222.874 190.31C223.039 191.206 223.124 192.114 223.129 193.025C223.14 225.809 223.135 258.593 223.116 291.377C223.112 292.876 222.931 294.37 222.576 295.827C222.022 298.079 220.734 298.944 218.417 298.944H210.97C208.715 298.944 207.46 298.084 206.891 295.904C206.558 294.659 206.381 293.377 206.363 292.089C206.316 283.591 206.335 275.093 206.335 266.595C206.335 246.928 206.335 227.261 206.335 207.593V206.665Z" fill="white"/>
<path d="M436.026 368.039C439.024 373.396 440.948 379.269 441.689 385.324C442.431 391.38 441.974 397.497 440.345 403.328C438.717 409.159 435.948 414.589 432.198 419.307C428.448 424.025 423.79 427.939 418.49 430.825V430.825C423.787 427.934 429.623 426.127 435.665 425.507C441.706 424.888 447.834 425.467 453.699 427.213C459.564 428.959 465.05 431.838 469.845 435.683C474.639 439.529 478.647 444.267 481.64 449.626V449.626C478.642 444.269 476.718 438.396 475.976 432.34C475.235 426.285 475.692 420.167 477.321 414.337C478.949 408.506 481.718 403.076 485.468 398.358C489.218 393.64 493.876 389.726 499.176 386.84V386.84C493.879 389.731 488.043 391.538 482.001 392.158C475.96 392.777 469.832 392.198 463.967 390.452C458.102 388.705 452.616 385.827 447.821 381.982C443.027 378.136 439.019 373.398 436.026 368.039V368.039Z" fill="white"/>
<path d="M436.026 368.039C439.024 373.396 440.948 379.269 441.689 385.324C442.431 391.38 441.974 397.497 440.345 403.328C438.717 409.159 435.948 414.589 432.198 419.307C428.448 424.025 423.79 427.939 418.49 430.825V430.825C423.787 427.934 429.623 426.127 435.665 425.507C441.706 424.888 447.834 425.467 453.699 427.213C459.564 428.959 465.05 431.838 469.845 435.683C474.639 439.529 478.647 444.267 481.64 449.626V449.626C478.642 444.269 476.718 438.396 475.976 432.34C475.235 426.285 475.692 420.167 477.321 414.337C478.949 408.506 481.718 403.076 485.468 398.358C489.218 393.64 493.876 389.726 499.176 386.84V386.84C493.879 389.731 488.043 391.538 482.001 392.158C475.96 392.777 469.832 392.198 463.967 390.452C458.102 388.705 452.616 385.827 447.821 381.982C443.027 378.136 439.019 373.398 436.026 368.039V368.039Z" fill="white"/>
<path d="M482.57 450.556L482.299 450.827C482.049 450.959 481.762 451.007 481.48 450.964C481.197 450.921 480.934 450.789 480.729 450.587C480.625 450.507 480.532 450.414 480.452 450.311C474.575 439.814 464.824 431.991 453.334 428.555C441.844 425.118 429.551 426.349 419.148 431.976C418.9 432.114 418.612 432.165 418.328 432.122C418.044 432.078 417.78 431.943 417.578 431.736C417.474 431.657 417.381 431.564 417.302 431.46C417.215 431.306 417.16 431.137 417.14 430.963C417.12 430.789 417.135 430.613 417.185 430.447C417.234 430.28 417.317 430.126 417.428 429.993C417.539 429.86 417.676 429.751 417.831 429.673C428.223 424.004 435.857 414.395 439.055 402.958C442.253 391.521 440.754 379.19 434.887 368.675C434.745 368.395 434.704 368.076 434.772 367.773C434.839 367.471 435.01 367.203 435.256 367.017C435.502 366.83 435.807 366.737 436.119 366.753C436.43 366.769 436.728 366.893 436.962 367.103C437.065 367.183 437.158 367.276 437.239 367.38C443.107 377.879 452.855 385.705 464.344 389.137C475.833 392.57 488.124 391.33 498.517 385.689C498.766 385.551 499.054 385.5 499.338 385.544C499.622 385.587 499.885 385.722 500.088 385.929C500.192 386.008 500.285 386.101 500.364 386.205C500.529 386.518 500.566 386.88 500.467 387.214C500.368 387.548 500.141 387.827 499.835 387.992C489.449 393.668 481.822 403.277 478.624 414.711C475.427 426.146 476.921 438.473 482.778 448.99C482.921 449.241 482.978 449.531 482.94 449.814C482.903 450.097 482.772 450.358 482.57 450.556V450.556ZM428.217 425.522C436.657 423.303 445.592 423.46 454.044 425.977C462.497 428.493 470.141 433.272 476.141 439.79C473.75 431.31 473.724 422.381 476.067 413.982C478.41 405.583 483.031 398.036 489.424 392.168C480.991 394.381 472.065 394.221 463.622 391.705C455.179 389.188 447.543 384.413 441.55 377.9C443.923 386.386 443.935 395.313 441.584 403.711C439.233 412.108 434.609 419.652 428.217 425.522V425.522Z" fill="#0000FF"/>
<path d="M494.208 462.194C493.054 463.359 491.73 464.344 490.28 465.116C486.96 466.922 483.121 467.59 479.34 467.018C475.56 466.446 472.043 464.665 469.319 461.944C468.136 460.764 467.118 459.431 466.293 457.981C464.448 454.651 461.968 451.707 458.996 449.319C456.025 446.932 452.621 445.148 448.982 444.07C445.342 442.984 441.538 442.623 437.788 443.008C434.038 443.393 430.416 444.517 427.13 446.315C423.809 448.121 419.97 448.789 416.19 448.217C412.41 447.645 408.893 445.864 406.169 443.143C404.98 441.965 403.969 440.622 403.167 439.156C402.029 437.121 401.298 434.891 401.016 432.591C400.735 430.292 400.908 427.968 401.526 425.754C402.143 423.539 403.194 421.477 404.618 419.684C406.041 417.892 407.809 416.404 409.821 415.307C416.454 411.688 421.327 405.554 423.367 398.253C425.407 390.952 424.45 383.082 420.704 376.37C418.631 372.638 417.958 368.311 418.809 364.181C419.659 360.052 421.976 356.398 425.335 353.889C428.693 351.379 432.868 350.183 437.094 350.519C441.32 350.855 445.314 352.701 448.344 355.719C449.527 356.898 450.545 358.232 451.37 359.681C453.221 363.009 455.705 365.952 458.677 368.34C461.65 370.729 465.053 372.516 468.691 373.6C472.33 374.684 476.132 375.043 479.88 374.657C483.629 374.27 487.249 373.146 490.533 371.348C493.853 369.541 497.692 368.874 501.472 369.446C505.253 370.018 508.769 371.799 511.494 374.52C512.683 375.697 513.694 377.041 514.495 378.507C515.634 380.541 516.365 382.772 516.646 385.071C516.928 387.371 516.755 389.694 516.137 391.909C515.519 394.124 514.468 396.186 513.045 397.978C511.622 399.771 509.853 401.258 507.841 402.355C501.208 405.975 496.336 412.109 494.296 419.409C492.255 426.71 493.213 434.581 496.959 441.292C498.833 444.65 499.577 448.503 499.081 452.272C498.585 456.042 496.875 459.523 494.208 462.194V462.194ZM456.777 409.98C457.85 410.265 458.899 410.574 459.972 410.908C460.21 409.865 460.499 408.823 460.837 407.781C460.287 407.626 459.764 407.497 459.239 407.317L457.641 406.754L456.777 409.98Z" fill="white"/>
<path d="M436.026 368.039C439.024 373.396 440.948 379.269 441.689 385.324C442.431 391.38 441.974 397.497 440.345 403.328C438.717 409.159 435.948 414.589 432.198 419.307C428.448 424.025 423.79 427.939 418.49 430.825V430.825C423.787 427.934 429.623 426.127 435.665 425.507C441.706 424.888 447.834 425.467 453.699 427.213C459.564 428.959 465.05 431.838 469.845 435.683C474.639 439.529 478.647 444.267 481.64 449.626V449.626C478.642 444.269 476.718 438.396 475.976 432.34C475.235 426.285 475.692 420.167 477.321 414.337C478.949 408.506 481.718 403.076 485.468 398.358C489.218 393.64 493.876 389.726 499.176 386.84V386.84C493.879 389.731 488.043 391.538 482.001 392.158C475.96 392.777 469.832 392.198 463.967 390.452C458.102 388.705 452.616 385.827 447.821 381.982C443.027 378.136 439.019 373.398 436.026 368.039V368.039Z" fill="white"/>
<path d="M482.57 450.556L482.299 450.827C482.049 450.959 481.762 451.007 481.48 450.964C481.197 450.921 480.934 450.789 480.729 450.587C480.625 450.507 480.532 450.414 480.452 450.311C474.575 439.814 464.824 431.991 453.334 428.555C441.844 425.118 429.551 426.349 419.148 431.976C418.9 432.114 418.612 432.165 418.328 432.122C418.044 432.078 417.78 431.943 417.578 431.736C417.474 431.657 417.381 431.564 417.302 431.46C417.215 431.306 417.16 431.137 417.14 430.963C417.12 430.789 417.135 430.613 417.185 430.447C417.234 430.28 417.317 430.126 417.428 429.993C417.539 429.86 417.676 429.751 417.831 429.673C428.223 424.004 435.857 414.395 439.055 402.958C442.253 391.521 440.754 379.19 434.887 368.675C434.745 368.395 434.704 368.076 434.772 367.773C434.839 367.471 435.01 367.203 435.256 367.017C435.502 366.83 435.807 366.737 436.119 366.753C436.43 366.769 436.728 366.893 436.962 367.103C437.065 367.183 437.158 367.276 437.239 367.38C443.107 377.879 452.855 385.705 464.344 389.137C475.833 392.57 488.124 391.33 498.517 385.689C498.766 385.551 499.054 385.5 499.338 385.544C499.622 385.587 499.885 385.722 500.088 385.929C500.192 386.008 500.285 386.101 500.364 386.205C500.529 386.518 500.566 386.88 500.467 387.214C500.368 387.548 500.141 387.827 499.835 387.992C489.449 393.668 481.822 403.277 478.624 414.711C475.427 426.146 476.921 438.473 482.778 448.99C482.921 449.241 482.978 449.531 482.94 449.814C482.903 450.097 482.772 450.358 482.57 450.556V450.556ZM428.217 425.522C436.657 423.303 445.592 423.46 454.044 425.977C462.497 428.493 470.141 433.272 476.141 439.79C473.75 431.31 473.724 422.381 476.067 413.982C478.41 405.583 483.031 398.036 489.424 392.168C480.991 394.381 472.065 394.221 463.622 391.705C455.179 389.188 447.543 384.413 441.55 377.9C443.923 386.386 443.935 395.313 441.584 403.711C439.233 412.108 434.609 419.652 428.217 425.522V425.522Z" fill="#0000FF"/>
</svg>
